<?xml version="1.0" encoding="utf-8"?>
<svg version="1.1" xmlns:xlink="http://www.w3.org/1999/xlink" width="153px" height="22px" xmlns="http://www.w3.org/2000/svg">
  <g transform="matrix(1 0 0 1 -100 -21 )">
    <path d="M 143.60298368800966 12.990978708467814  L 147.56506729358497 3.905839333259137  L 147.6231698024481 3.905839333259137  L 147.6452123748714 12.990978708467814  L 143.60298368800966 12.990978708467814  Z M 145.7858862329159 0.3966703622214422  L 135.9452992542892 20.60332963777853  L 140.276038004893 20.60332963777853  L 142.15639783592917 16.330282003647042  L 147.64220101095506 16.330282003647042  L 147.66824854452582 20.60332963777853  L 151.99999617847223 20.60332963777853  L 150.92607043256777 0.3966703622214422  L 145.7858862329159 0.3966703622214422  Z M 121.03064050716901 14.291938839281892  L 116.87320039981226 14.291938839281892  C 116.87320039981226 14.291938839281892  116.69488791207507 15.112771494859041  116.69488791207507 15.112771494859041  C 115.88443357968441 18.848745152259752  117.2659005978378 21  121.97231081853404 21  C 126.47737238183863 21  129.55085905431068 19.07555732961215  130.4785272877702 14.801528375867884  C 131.0124711537504 12.340004237759725  130.5416283550123 10.78277735923361  127.71157300420458 9.453336486683162  C 127.71157300420458 9.453336486683162  124.80037897487921 8.094448534762472  124.80037897487921 8.094448534762472  C 123.19951040194725 7.359035631426199  122.98912765280649 6.594168157730272  123.25961539138427 5.349173208797418  C 123.5170793631766 4.160135950756376  124.26041238106623 3.0005607540643973  126.13676725095478 3.0005607540643973  C 127.72459677099005 3.0005607540643973  128.14935194430794 4.104170768875153  127.73862942111796 6.000140188516099  C 127.73862942111796 6.000140188516099  131.7237491963478 6.000140188516099  131.7237491963478 6.000140188516099  C 131.7237491963478 6.000140188516099  131.8459616557956 5.4336116414256  131.8459616557956 5.4336116414256  C 132.687462080136 1.5572268785261159  130.33927081427805 0  126.64366998613288 0  C 122.71564383642375 0  119.82548349617899 2.0098699136181906  118.97296178562695 5.943193687022182  C 118.2416436511802 9.310970232948367  119.62011459152843 10.811250609980565  123.0462365644385 12.056245558913421  C 125.58677296816154 12.990978708467814  126.39221345606205 13.669445110310168  125.99350581631504 15.509449348069893  C 125.6248506712866 17.20707984110541  124.24037228921685 17.999439245935577  122.97009644429966 17.999439245935577  C 120.77517901595053 17.999439245935577  120.49067391335613 16.782917547749708  120.90240531988852 14.886948128108761  C 120.90240531988852 14.886948128108761  121.03064050716901 14.291938839281892  121.03064050716901 14.291938839281892  Z M 104.92384851584427 14.291938839281892  L 100.76541481125622 14.291938839281892  C 100.76541481125622 14.291938839281892  100.58809592075033 15.112771494859041  100.58809592075033 15.112771494859041  C 99.77764158835969 18.848745152259752  101.15912389262435 21  105.86553411332059 21  C 110.37058039051391 21  113.44406706298595 19.07555732961215  114.37173529644546 14.801528375867884  C 114.90567916242566 12.340004237759725  114.43485164979884 10.78277735923361  111.60478101287985 9.453336486683162  C 111.60478101287985 9.453336486683162  108.69358698355448 8.094448534762472  108.69358698355448 8.094448534762472  C 107.09172481339131 7.359035631426199  106.88235094759308 6.594168157730272  107.15282340005956 5.349173208797418  C 107.41028737185188 4.160135950756376  108.1536203897415 3.0005607540643973  110.02997525963005 3.0005607540643973  C 111.6178047796653 3.0005607540643973  112.04257523909439 4.104170768875153  111.63183742979322 6.000140188516099  C 111.63183742979322 6.000140188516099  115.61695720502307 6.000140188516099  115.61695720502307 6.000140188516099  C 115.61695720502307 6.000140188516099  115.73916966447086 5.4336116414256  115.73916966447086 5.4336116414256  C 116.58068537492255 1.5572268785261159  114.23247882295331 0  110.53687799480815 0  C 106.60885184509903 0  103.71869150485428 2.0098699136181906  102.86616979430221 5.943193687022182  C 102.13486694596675 9.310970232948367  103.51332260020371 10.811250609980565  106.93944457311366 12.056245558913421  C 109.47999626294813 12.990978708467814  110.28542146473734 13.669445110310168  109.88671382499032 15.509449348069893  C 109.51805867996187 17.20707984110541  108.13358029789211 17.999439245935577  106.86330445297492 17.999439245935577  C 104.6683870246258 17.999439245935577  104.3838819220314 16.782917547749708  104.79461973133257 14.886948128108761  C 104.79461973133257 14.886948128108761  104.92384851584427 14.291938839281892  104.92384851584427 14.291938839281892  Z M 92.96847390404362 0.3966703622214422  L 88.29011369749206 0.3966703622214422  L 90.97391153585494 12.65125484774029  L 89.24882802290142 20.60332963777853  L 93.40726172748946 20.60332963777853  L 95.13234524044299 12.65125484774029  L 103.13263728562107 0.3966703622214422  L 98.62759100842783 0.3966703622214422  L 94.04539572775312 8.20736021813761  L 93.9883021022325 8.20736021813761  L 92.96847390404362 0.3966703622214422  Z M 65.95219067573359 0.3966703622214422  L 65.32205895470953 20.60332963777853  L 69.97137554988517 20.60332963777853  L 75.46118368605873 5.943193687022182  L 75.51928619492185 5.943193687022182  L 74.64973575643673 20.60332963777853  L 79.29804346826978 20.60332963777853  L 87.43558950636616 0.3966703622214422  L 83.45046973113644 0.3966703622214422  L 77.92759773632804 15.339583672211425  L 77.87048882469612 15.339583672211425  L 78.6859417154658 0.3966703622214422  L 74.70082194023595 0.3966703622214422  L 69.03470379689904 15.339583672211425  L 68.97660128803592 15.339583672211425  L 69.9363092106765 0.3966703622214422  L 65.95219067573359 0.3966703622214422  Z M 51.63560103128957 11.77936360834539  L 50.25012140893293 18.16733479157923  L 51.679678533080384 18.16733479157923  L 53.065150512381436 11.77936360834539  L 59.582804412094696 11.77936360834539  L 59.88734960653847 10.3782489491212  L 53.36969570682532 10.3782489491212  L 54.755175329181846 3.9902777658873188  L 53.32561820503439 3.9902777658873188  L 51.940146225733436 10.3782489491212  L 45.42249232602018 10.3782489491212  L 45.11794713157631 11.77936360834539  L 51.63560103128957 11.77936360834539  Z M 45.306287308293854 0.3966703622214422  L 32.138747003494785 0.3966703622214422  L 31.414452837167616 3.7359736574006694  L 35.918505517129645 3.7359736574006694  L 32.25996586571131 20.60332963777853  L 36.41839957029937 20.60332963777853  L 40.07693922171766 3.7359736574006694  L 44.58199314196668 3.7359736574006694  L 45.306287308293854 0.3966703622214422  Z M 31.23212774522719 0.3966703622214422  L 18.064595083483788 0.3966703622214422  L 17.34030091715662 3.7359736574006694  L 21.84535483740556 3.7359736574006694  L 18.185813945700314 20.60332963777853  L 22.34424000723274 20.60332963777853  L 26.00277965865108 3.7359736574006694  L 30.50783357890002 3.7359736574006694  L 31.23212774522719 0.3966703622214422  Z M 4.908076064896381 10.5  C 6.0801768603071675 5.09486910031077  6.9387060125806705 3.0005607540643973  9.39309753635153 3.0005607540643973  C 11.847481417066762 3.0005607540643973  11.79738883049885 5.09486910031077  10.625295678143686 10.5  C 9.446186200724542 15.933611641425598  8.593664490172488 17.999439245935577  6.139280609457256 17.999439245935577  C 3.6848890856863967 17.999439245935577  3.728974230532861 15.933611641425598  4.908076064896381 10.5  Z M 0.7496461818361446 10.5  C -0.5827371330918463 16.641532613627607  -0.7480296755713964 21  5.48911643963942 21  C 11.726262554850239 21  13.451346067803758 16.641532613627607  14.783729382731742 10.5  C 16.11511145737282 4.358474877361802  16.28140906166709 0  10.044255303400648 0  C 3.80710918818983 0  2.082025675236309 4.358474877361802  0.7496461818361446 10.5  Z " fill-rule="nonzero" fill="#6f6e6e" stroke="none" transform="matrix(1 0 0 1 100 21 )" />
  </g>
</svg>