<svg xmlns="http://www.w3.org/2000/svg" xmlns:xlink="http://www.w3.org/1999/xlink" width="24.231" height="24.231" viewBox="0 0 24.231 24.231">
  <defs>
    <clipPath id="clip-path">
      <path id="Path_74" data-name="Path 74" d="M0,0H24.231V-24.231H0Z" fill="none"/>
    </clipPath>
  </defs>
  <g id="Group_97" data-name="Group 97" transform="translate(0 24.231)">
    <g id="Group_96" data-name="Group 96" clip-path="url(#clip-path)">
      <g id="Group_93" data-name="Group 93" transform="translate(20.343 -13.81)">
        <path id="Path_71" data-name="Path 71" d="M0,0A9.921,9.921,0,0,1-9.922,9.921,9.921,9.921,0,0,1-19.843,0,9.921,9.921,0,0,1-9.922-9.921,9.921,9.921,0,0,1,0,0" fill="#fff"/>
      </g>
      <g id="Group_94" data-name="Group 94" transform="translate(20.343 -13.81)">
        <path id="Path_72" data-name="Path 72" d="M0,0A9.921,9.921,0,0,1-9.922,9.921,9.921,9.921,0,0,1-19.843,0,9.921,9.921,0,0,1-9.922-9.921,9.921,9.921,0,0,1,0,0Z" fill="none" stroke="#2b2e34" stroke-linecap="round" stroke-width="1"/>
      </g>
      <g id="Group_95" data-name="Group 95" transform="translate(17.437 -6.794)">
        <path id="Path_73" data-name="Path 73" d="M0,0,6.294,6.294" fill="none" stroke="#2b2e34" stroke-linecap="round" stroke-width="1"/>
      </g>
    </g>
  </g>
</svg>
